Coordinates
version=1
nRows=13
nColumns=27
inDegrees=yes

Units are S.I. units (second, meters, Newtons, ...)
If the header above contains a line with 'inDegrees', this indicates whether rotational values are in degrees (yes) or radians (no).

endheader
time	pelvis_rotation	pelvis_tilt	pelvis_list	pelvis_tx	pelvis_ty	pelvis_tz	hip_flexion_r	hip_adduction_r	hip_rotation_r	knee_angle_r	knee_rotation_r	knee_adduction_r	knee_angle_r_beta	ankle_angle_r	subtalar_angle_r	mtp_angle_r	hip_flexion_l	hip_adduction_l	hip_rotation_l	knee_angle_l	knee_rotation_l	knee_adduction_l	knee_angle_l_beta	ankle_angle_l	subtalar_angle_l	mtp_angle_l
      3.94500000	      5.81874500	    -31.76871610	      5.50972058	      0.02081732	      0.63416776	     -1.15922979	     97.73831383	    -45.40739085	      1.95275464	     81.67169747	      0.00000000	      9.67222924	      1.42544003	     10.44802925	      0.00000000	      0.00000000	     93.63519205	    -26.39575085	      3.89089888	     77.15401302	      0.00000000	     -9.81376891	      1.34659156	     12.73184320	      0.00000000	      0.00000000
      3.95000000	      6.34618633	    -31.71246424	      5.73766875	      0.02127862	      0.63240062	     -1.15954584	     98.11352547	    -46.13646732	      2.12016332	     82.04061577	      0.00000000	      9.82906503	      1.43187887	     10.46343120	      0.00000000	      0.00000000	     93.89411191	    -25.96473551	      4.00284573	     77.49186195	      0.00000000	     -9.90142600	      1.35248813	     12.84320651	      0.00000000	      0.00000000
      3.95500000	      5.80722982	    -31.83019765	      5.96545792	      0.02086446	      0.63066673	     -1.15923447	     99.08735012	    -45.35228856	      3.27144927	     82.37971219	      0.00000000	      9.67548179	      1.43779721	     10.54567587	      0.00000000	      0.00000000	     93.92085873	    -26.51031942	      3.64133029	     77.75456007	      0.00000000	     -9.81658316	      1.35707308	     12.93753306	      0.00000000	      0.00000000
      3.96000000	      6.35840037	    -31.76420391	      5.99605249	      0.02142576	      0.62898648	     -1.15939609	     99.17326235	    -46.14710070	      3.07091824	     82.70936301	      0.00000000	      9.83093813	      1.44355071	     10.63647791	      0.00000000	      0.00000000	     94.29755424	    -26.03976722	      4.01793818	     78.10229983	      0.00000000	     -9.90313431	      1.36314229	     13.04048894	      0.00000000	      0.00000000
      3.96500000	      5.86117475	    -31.90245881	      5.97719466	      0.02105018	      0.62734167	     -1.15890957	     99.78548931	    -45.43628743	      3.74821243	     82.99874883	      0.00000000	      9.67920908	      1.44860144	     10.72696806	      0.00000000	      0.00000000	     94.52218208	    -26.53287433	      3.99176714	     78.37540749	      0.00000000	     -9.81963487	      1.36790891	     13.10084267	      0.00000000	      0.00000000
      3.97000000	      6.39037959	    -31.84053919	      5.99001008	      0.02160409	      0.62567082	     -1.15905430	     99.86559760	    -46.20319894	      3.55334027	     83.32516112	      0.00000000	      9.83264693	      1.45429841	     10.82637465	      0.00000000	      0.00000000	     94.90528564	    -26.07991177	      4.37310906	     78.72086539	      0.00000000	     -9.90474071	      1.37393829	     13.18596272	      0.00000000	      0.00000000
      3.97500000	      6.43119866	    -31.88793450	      5.94325152	      0.02170280	      0.62401064	     -1.15888146	    100.15579810	    -46.26994470	      3.70431916	     83.62491358	      0.00000000	      9.83353937	      1.45953008	     10.92944949	      0.00000000	      0.00000000	     95.26063642	    -26.06573631	      4.62600298	     79.04040244	      0.00000000	     -9.90545214	      1.37951526	     13.25964816	      0.00000000	      0.00000000
      3.98000000	      6.43486342	    -31.93511152	      5.90874472	      0.02179954	      0.62237747	     -1.15868135	    100.46928676	    -46.29739437	      3.87894242	     83.92641331	      0.00000000	      9.83428019	      1.46479224	     11.01673802	      0.00000000	      0.00000000	     95.58521553	    -26.08897083	      4.84109351	     79.34260817	      0.00000000	     -9.90618402	      1.38478975	     13.32112820	      0.00000000	      0.00000000
      3.98500000	      6.46977502	    -31.88464573	      5.97308869	      0.02205536	      0.62077675	     -1.15864129	    100.77351536	    -46.39460073	      4.16538921	     84.20161158	      0.00000000	      9.83565300	      1.46959536	     11.10765907	      0.00000000	      0.00000000	     95.73646212	    -26.09704154	      4.91337998	     79.63936852	      0.00000000	     -9.90671044	      1.38996919	     13.42963508	      0.00000000	      0.00000000
      3.99000000	      6.47695560	    -31.97730420	      5.75678313	      0.02211773	      0.61910293	     -1.15828587	    100.89978800	    -46.41981034	      4.06808226	     84.51485105	      0.00000000	      9.83620081	      1.47506242	     11.33811982	      0.00000000	      0.00000000	     96.24352378	    -26.08477717	      5.39079674	     79.97354852	      0.00000000	     -9.90754515	      1.39580174	     13.47599927	      0.00000000	      0.00000000
      3.99500000	      6.33420740	    -32.01925143	      5.45864069	      0.02208664	      0.61767783	     -1.15779571	    100.87285671	    -46.24245514	      3.93250721	     84.71259495	      0.00000000	      9.68968877	      1.47851370	     11.25114298	      0.00000000	      0.00000000	     96.64492944	    -26.17356386	      5.89818679	     80.24127154	      0.00000000	     -9.82653826	      1.40047438	     13.50690595	      0.00000000	      0.00000000
      4.00000000	      6.51231456	    -31.99051267	      5.96717888	      0.02236634	      0.61573981	     -1.15822151	    101.83852874	    -46.48375227	      4.89838418	     85.14238711	      0.00000000	      9.83806053	      1.48601499	     11.40971914	      0.00000000	      0.00000000	     96.62713442	    -26.11058160	      5.48467606	     80.56868043	      0.00000000	     -9.90867357	      1.40618875	     13.69612835	      0.00000000	      0.00000000
      4.00500000	      6.44806749	    -32.04615649	      5.96741012	      0.02242687	      0.61405246	     -1.15807017	    102.23348496	    -46.42534386	      5.18148718	     85.44355340	      0.00000000	      9.83887058	      1.49127133	     11.53826193	      0.00000000	      0.00000000	     96.92199243	    -26.19789755	      5.63197850	     80.88021479	      0.00000000	     -9.90938458	      1.41162605	     13.76816338	      0.00000000	      0.00000000
